<mxfile host="app.diagrams.net" agent="Mozilla/5.0 (Windows NT 10.0; Win64; x64) AppleWebKit/537.36 (KHTML, like Gecko) Chrome/135.0.0.0 Safari/537.36" version="26.2.14">
  <diagram name="PÃ¡gina-1" id="BEZ9pj3PYVd8zCaVRfvn">
    <mxGraphModel dx="1426" dy="743" grid="1" gridSize="10" guides="1" tooltips="1" connect="1" arrows="1" fold="1" page="1" pageScale="1" pageWidth="827" pageHeight="1169" math="0" shadow="0">
      <root>
        <mxCell id="0" />
        <mxCell id="1" parent="0" />
        <mxCell id="lu8BM5eNogGUctwTY50--3" value="" style="edgeStyle=orthogonalEdgeStyle;rounded=0;orthogonalLoop=1;jettySize=auto;html=1;" edge="1" parent="1" source="lu8BM5eNogGUctwTY50--1" target="lu8BM5eNogGUctwTY50--2">
          <mxGeometry relative="1" as="geometry" />
        </mxCell>
        <mxCell id="lu8BM5eNogGUctwTY50--1" value="Salesforce" style="rounded=0;whiteSpace=wrap;html=1;" vertex="1" parent="1">
          <mxGeometry x="70" y="170" width="120" height="60" as="geometry" />
        </mxCell>
        <mxCell id="lu8BM5eNogGUctwTY50--6" value="" style="edgeStyle=orthogonalEdgeStyle;rounded=0;orthogonalLoop=1;jettySize=auto;html=1;" edge="1" parent="1" source="lu8BM5eNogGUctwTY50--2" target="lu8BM5eNogGUctwTY50--5">
          <mxGeometry relative="1" as="geometry" />
        </mxCell>
        <mxCell id="lu8BM5eNogGUctwTY50--27" style="edgeStyle=orthogonalEdgeStyle;rounded=0;orthogonalLoop=1;jettySize=auto;html=1;entryX=0.5;entryY=0;entryDx=0;entryDy=0;" edge="1" parent="1" source="lu8BM5eNogGUctwTY50--2" target="lu8BM5eNogGUctwTY50--26">
          <mxGeometry relative="1" as="geometry" />
        </mxCell>
        <mxCell id="lu8BM5eNogGUctwTY50--2" value="Apex&lt;div&gt;BE_IntegrationUtils&lt;/div&gt;" style="rounded=0;whiteSpace=wrap;html=1;" vertex="1" parent="1">
          <mxGeometry x="240" y="170" width="120" height="60" as="geometry" />
        </mxCell>
        <mxCell id="lu8BM5eNogGUctwTY50--8" value="" style="edgeStyle=orthogonalEdgeStyle;rounded=0;orthogonalLoop=1;jettySize=auto;html=1;" edge="1" parent="1" source="lu8BM5eNogGUctwTY50--5" target="lu8BM5eNogGUctwTY50--7">
          <mxGeometry relative="1" as="geometry" />
        </mxCell>
        <mxCell id="lu8BM5eNogGUctwTY50--5" value="Custom Metadata&lt;div&gt;- Endpoint&lt;/div&gt;&lt;div&gt;- Tipo de R (Get, Post)&lt;/div&gt;" style="rounded=0;whiteSpace=wrap;html=1;" vertex="1" parent="1">
          <mxGeometry x="440" y="170" width="180" height="60" as="geometry" />
        </mxCell>
        <mxCell id="lu8BM5eNogGUctwTY50--25" style="edgeStyle=orthogonalEdgeStyle;rounded=0;orthogonalLoop=1;jettySize=auto;html=1;entryX=0.5;entryY=0;entryDx=0;entryDy=0;" edge="1" parent="1" source="lu8BM5eNogGUctwTY50--7" target="lu8BM5eNogGUctwTY50--10">
          <mxGeometry relative="1" as="geometry" />
        </mxCell>
        <mxCell id="lu8BM5eNogGUctwTY50--7" value="Dominio Named Credential&lt;div&gt;&lt;span style=&quot;color: rgb(24, 24, 24); font-family: -apple-system, BlinkMacSystemFont, &amp;quot;Segoe UI&amp;quot;, Roboto, Helvetica, Arial, sans-serif, &amp;quot;Apple Color Emoji&amp;quot;, &amp;quot;Segoe UI Emoji&amp;quot;, &amp;quot;Segoe UI Symbol&amp;quot;; font-size: 13px; text-align: left; text-wrap-mode: nowrap; background-color: rgb(255, 255, 255);&quot;&gt;https://sucursales.qa.bancoestado.cl&lt;/span&gt;&lt;/div&gt;" style="rounded=0;whiteSpace=wrap;html=1;" vertex="1" parent="1">
          <mxGeometry x="700" y="170" width="260" height="60" as="geometry" />
        </mxCell>
        <mxCell id="lu8BM5eNogGUctwTY50--10" value="AWS Salesforce Account" style="points=[[0,0],[0.25,0],[0.5,0],[0.75,0],[1,0],[1,0.25],[1,0.5],[1,0.75],[1,1],[0.75,1],[0.5,1],[0.25,1],[0,1],[0,0.75],[0,0.5],[0,0.25]];outlineConnect=0;gradientColor=none;html=1;whiteSpace=wrap;fontSize=12;fontStyle=0;container=1;pointerEvents=0;collapsible=0;recursiveResize=0;shape=mxgraph.aws4.group;grIcon=mxgraph.aws4.group_account;strokeColor=#CD2264;fillColor=none;verticalAlign=top;align=left;spacingLeft=30;fontColor=#CD2264;dashed=0;" vertex="1" parent="1">
          <mxGeometry x="648" y="320" width="365" height="190" as="geometry" />
        </mxCell>
        <mxCell id="lu8BM5eNogGUctwTY50--13" value="" style="edgeStyle=orthogonalEdgeStyle;rounded=0;orthogonalLoop=1;jettySize=auto;html=1;" edge="1" parent="lu8BM5eNogGUctwTY50--10" source="lu8BM5eNogGUctwTY50--11" target="lu8BM5eNogGUctwTY50--12">
          <mxGeometry relative="1" as="geometry" />
        </mxCell>
        <mxCell id="lu8BM5eNogGUctwTY50--11" value="ALB" style="rounded=0;whiteSpace=wrap;html=1;" vertex="1" parent="lu8BM5eNogGUctwTY50--10">
          <mxGeometry x="122.5" y="30" width="120" height="30" as="geometry" />
        </mxCell>
        <mxCell id="lu8BM5eNogGUctwTY50--15" value="" style="edgeStyle=orthogonalEdgeStyle;rounded=0;orthogonalLoop=1;jettySize=auto;html=1;" edge="1" parent="lu8BM5eNogGUctwTY50--10" source="lu8BM5eNogGUctwTY50--12" target="lu8BM5eNogGUctwTY50--14">
          <mxGeometry relative="1" as="geometry" />
        </mxCell>
        <mxCell id="lu8BM5eNogGUctwTY50--12" value="EKS" style="whiteSpace=wrap;html=1;rounded=0;" vertex="1" parent="lu8BM5eNogGUctwTY50--10">
          <mxGeometry x="122.5" y="80" width="120" height="35" as="geometry" />
        </mxCell>
        <mxCell id="lu8BM5eNogGUctwTY50--23" style="edgeStyle=orthogonalEdgeStyle;rounded=0;orthogonalLoop=1;jettySize=auto;html=1;" edge="1" parent="lu8BM5eNogGUctwTY50--10" source="lu8BM5eNogGUctwTY50--14" target="lu8BM5eNogGUctwTY50--22">
          <mxGeometry relative="1" as="geometry" />
        </mxCell>
        <mxCell id="lu8BM5eNogGUctwTY50--14" value="MicroServicio" style="rounded=0;whiteSpace=wrap;html=1;shadow=1;strokeColor=#66FF66;fillColor=#009900;" vertex="1" parent="lu8BM5eNogGUctwTY50--10">
          <mxGeometry x="122.5" y="130" width="120" height="37.5" as="geometry" />
        </mxCell>
        <mxCell id="lu8BM5eNogGUctwTY50--22" value="BD Hab" style="shape=cylinder3;whiteSpace=wrap;html=1;boundedLbl=1;backgroundOutline=1;size=7;" vertex="1" parent="lu8BM5eNogGUctwTY50--10">
          <mxGeometry x="300" y="120.63" width="40" height="56.25" as="geometry" />
        </mxCell>
        <mxCell id="lu8BM5eNogGUctwTY50--17" value="API Visa" style="rounded=1;whiteSpace=wrap;html=1;" vertex="1" parent="1">
          <mxGeometry x="770.5" y="560" width="120" height="40" as="geometry" />
        </mxCell>
        <mxCell id="lu8BM5eNogGUctwTY50--24" style="edgeStyle=orthogonalEdgeStyle;rounded=0;orthogonalLoop=1;jettySize=auto;html=1;entryX=0.5;entryY=0;entryDx=0;entryDy=0;" edge="1" parent="1" source="lu8BM5eNogGUctwTY50--14" target="lu8BM5eNogGUctwTY50--17">
          <mxGeometry relative="1" as="geometry" />
        </mxCell>
        <mxCell id="lu8BM5eNogGUctwTY50--26" value="Encripta los datos de entrada y de salida&lt;div&gt;Pasa por Akamai&lt;/div&gt;&lt;div&gt;Genera el token de forma limpia&lt;/div&gt;&lt;div&gt;Cuenta con monitoreo&lt;/div&gt;" style="rounded=0;whiteSpace=wrap;html=1;" vertex="1" parent="1">
          <mxGeometry x="165" y="260" width="270" height="90" as="geometry" />
        </mxCell>
      </root>
    </mxGraphModel>
  </diagram>
</mxfile>
